# xmcd CD database file
#
# Track frame offsets:
#	150
#	10624
#	22131
#	33300
#	43250
#	57104
#	67826
#	78233
#	87560
#	98422
#	109092
#	120706
#	132003
#	142420
#	153896
#	164064
#
# Disc length: 2340 seconds
#
# Revision: 0
# Processed by: cddbd v1.5.1PL2 Copyright (c) Steve Scherf et al.
# Submitted via: CDex 1.51
#
DISCID=cf092210
DTITLE=Patsy Cline - Patsy Cline
DYEAR=2003
DGENRE=Country
TTITLE0=Crazy (Broadcast Recording)
TTITLE1=Walkin' After Midnight
TTITLE2=Hidin' Out
TTITLE3=Turn The Cards Slowly
TTITLE4=A Church, A Courtroom, And Then Goodbye
TTITLE5=Hohkeytonk Merry-Go-Round
TTITLE6=I Love You Honey
TTITLE7=Come On In
TTITLE8=I Cried All The Way To The Alter
TTITLE9=Stop, Look And Listen
TTITLE10=I've Loved And Lost Again
TTITLE11=Dear God
TTITLE12=He Will Do For You
TTITLE13=The Heart You Break May Be Your Own
TTITLE14=Three Cigarettes In An Ashtray
TTITLE15=In Care Of The Blues
EXTD=YEAR: 2003
EXTT0=
EXTT1=
EXTT2=
EXTT3=
EXTT4=
EXTT5=
EXTT6=
EXTT7=
EXTT8=
EXTT9=
EXTT10=
EXTT11=
EXTT12=
EXTT13=
EXTT14=
EXTT15=
PLAYORDER=
